<?xml version="1.0" encoding="UTF-8"?>
<svg version="1.1" viewBox="0 0 1024 1024" xmlns="http://www.w3.org/2000/svg">
<path transform="translate(510.75 143.56)" d="m0 0c0.74191 0.0030414 1.4838 0.0060828 2.2482 0.0092163 11.682 0.070656 22.828 0.79022 34.002 4.4283 0.6484 0.20899 1.2968 0.41798 1.9648 0.6333 37.266 12.513 64.173 43.196 81.348 77.554 0.95242 1.9669 1.8874 3.9404 2.8081 5.9224 0.83921 1.8038 1.7044 3.5954 2.5708 5.3862 12.227 25.942 19.395 54.512 23.621 82.754 0.15968 1.0507 0.31937 2.1015 0.48389 3.1841 1.0112 7.3379 1.4418 14.629 1.7512 22.026 0.044259 1.0161 0.088517 2.0322 0.13412 3.0791 0.10805 2.4869 0.21409 4.9739 0.31828 7.461 0.84722-0.0018436 1.6944-0.0036872 2.5673-0.0055866 20.632-0.044204 41.265-0.077282 61.897-0.098038 9.9778-0.010304 19.956-0.024349 29.933-0.047255 8.6985-0.019959 17.397-0.032844 26.096-0.037298 4.6041-0.002603 9.2081-0.008704 13.812-0.023283 4.3379-0.013624 8.6756-0.017753 13.013-0.014755 1.5878-5.48e-4 3.1756-0.0044965 4.7634-0.012196 12.253-0.056476 22.942 0.29936 32.917 8.2384 7.5288 8.4146 9.5198 18.052 9.3576 29.045-0.0092507 1.1139-0.018501 2.2279-0.028032 3.3756-0.26162 16.358-1.6132 32.674-2.8366 48.982-0.37098 4.9735-0.73082 9.9479-1.0921 14.922-0.70677 9.7063-1.4235 19.412-2.1437 29.117-0.84013 11.327-1.6699 22.656-2.4993 33.984-1.4808 20.222-2.9705 40.443-4.4654 60.664-1.4474 19.578-2.8891 39.156-4.3242 58.735-0.088479 1.2071-0.17696 2.4142-0.26812 3.6579-0.17827 2.4321-0.35653 4.8642-0.5348 7.2963-0.13194 1.8-0.13194 1.8-0.26654 3.6364-0.087748 1.1972-0.1755 2.3943-0.2659 3.6278-1.3727 18.725-2.7501 37.451-4.1281 56.176-0.49765 6.7626-0.99473 13.525-1.4914 20.288-0.78775 10.725-1.5776 21.45-2.3715 32.175-0.3622 4.8934-0.72352 9.787-1.0822 14.681-0.32933 4.4924-0.66152 8.9845-0.99584 13.477-0.1195 1.6119-0.23803 3.2238-0.35542 4.8358-0.62246 8.5392-1.3459 17.061-2.2294 25.577-0.081285 0.79058-0.16257 1.5812-0.24632 2.3957-0.59933 5.6153-1.4655 11.077-2.9202 16.541-0.21431 0.82258-0.42861 1.6452-0.64941 2.4927-6.1237 22.412-18.434 42.521-38.163 55.32-15.806 8.9696-31.578 10.597-49.305 10.508-2.0112 0.0046178-4.0224 0.010977-6.0336 0.018909-5.4856 0.016595-10.971 0.0084918-16.457-0.0039449-5.9319-0.0090885-11.864 0.004938-17.796 0.01592-10.935 0.016725-21.87 0.015323-32.805 0.0043541-10.104-0.010085-20.208-0.012678-30.312-0.0079094-0.67173 3.0554e-4 -1.3435 6.1108e-4 -2.0355 9.2588e-4 -2.7272 0.0012455-5.4543 0.0025191-8.1815 0.0038391-25.553 0.01222-51.105 0.0011674-76.658-0.020388-22.673-0.018981-45.347-0.017282-68.02 0.001844-25.508 0.021445-51.015 0.029897-76.523 0.017551-2.722-0.0012828-5.4441-0.0025341-8.1661-0.0037723-0.67017-3.1631e-4 -1.3403-6.3262e-4 -2.0308-9.5851e-4 -10.095-0.0045388-20.189 7.5052e-4 -30.284 0.010877-11.485 0.01124-22.969 0.0081384-34.454-0.013123-5.8552-0.010484-11.71-0.014678-17.565-0.0014034-5.3678 0.011985-10.735 0.0052609-16.103-0.01591-1.9338-0.0044402-3.8677-0.0022584-5.8015 0.0075032-23.656 0.11018-43.003-5.5201-60.422-22.417-18.722-20.03-24.346-47.646-26.196-74.05-0.10009-1.3702-0.20068-2.7403-0.30171-4.1104-0.27396-3.7344-0.54099-7.4693-0.80681-11.204-0.28911-4.0447-0.58476-8.0888-0.87959-12.133-0.51055-7.0155-1.017-14.031-1.5206-21.047-0.73465-10.234-1.4756-20.468-2.218-30.701-1.2132-16.726-2.4214-33.452-3.6264-50.178-1.1553-16.036-2.3128-32.071-3.4736-48.106-0.070757-0.97745-0.14151-1.9549-0.21442-2.962-0.35588-4.9159-0.7118-9.8318-1.0677-14.748-1.7062-23.565-3.4115-47.129-5.1121-70.694-0.1892-2.6215-0.37846-5.2429-0.56774-7.8644-0.55561-7.6967-1.1106-15.393-1.6626-23.09-0.30171-4.2066-0.60389-8.4132-0.90632-12.62-0.059794-0.83182-0.11959-1.6636-0.18119-2.5207-0.84204-11.701-1.7067-23.4-2.5864-35.098-0.49924-6.6397-0.99275-13.28-1.4851-19.92-0.33479-4.5092-0.67278-9.0181-1.0189-13.526-2.4407-31.828-2.4407-31.828-2.6355-46.207-0.023632-0.90798-0.047265-1.816-0.071613-2.7515 0.010317-9.5246 2.9829-18.032 9.6498-24.924 10.275-9.2259 24.182-9.086 37.253-8.989 1.6175 8.4805e-4 3.235 3.6767e-4 4.8525-0.0013275 4.3546-8.5444e-4 8.709 0.016681 13.064 0.037722 4.5643 0.018859 9.1287 0.020524 13.693 0.024076 8.627 0.0092934 17.254 0.03387 25.881 0.064048 9.8284 0.033629 19.657 0.050051 29.485 0.065086 20.203 0.031288 40.405 0.083995 60.608 0.15097-0.0037742-0.85939-0.0037742-0.85939-0.0076246-1.7361-0.010056-2.6236-0.01626-5.2472-0.022405-7.8708-0.0040258-0.90121-0.0080516-1.8024-0.012199-2.7309-0.011416-6.5034 0.31761-12.842 1.2297-19.287 0.1331-0.98815 0.26619-1.9763 0.40332-2.9944 7.8413-55.885 26.553-118.97 73.684-154.58 10.138-7.3013 20.892-13.091 32.725-17.117 1.0118-0.34563 1.0118-0.34563 2.0439-0.69824 12.85-4.1064 25.319-5.5437 38.706-5.4268zm-65.347 71.843c-3.9742 4.5149-7.2525 9.4866-10.403 14.594-0.55833 0.89646-0.55833 0.89646-1.1279 1.811-18.708 30.454-26.971 67.047-30.872 102.19-0.097163 0.79777-0.19433 1.5955-0.29443 2.4175-0.7584 6.6508-0.70557 12.767-0.70557 19.583h219c0.098612-9.3051 0.098612-9.3051-0.66406-18.348-0.14929-1.0858-0.29858-2.1716-0.45239-3.2903-0.25173-1.6952-0.25173-1.6952-0.50854-3.4246-0.26623-1.8121-0.26623-1.8121-0.53784-3.6609-7.1106-46.474-21.508-100.2-61.161-129.73-37.536-26.739-82.955-13.79-112.27 17.859zm-7.4033 264.59c-0.65227 0.58137-1.3045 1.1627-1.9766 1.7617-13.881 12.582-23.13 33.764-24.371 52.32-0.8387 22.983 8.6027 42.761 23.875 59.378 6.5787 6.882 14.122 12.162 22.16 17.165 0.6691 0.41911 1.3382 0.83821 2.0276 1.27 12.535 7.5424 25.912 12.997 39.81 17.436 2.3592 0.75408 4.7133 1.5226 7.0667 2.2948 3.0952 1.0151 6.1916 2.0264 9.2896 3.033 25.208 8.1978 50.109 17.373 70.119 35.341 0.7902 0.69609 1.5804 1.3922 2.3945 2.1094 11.513 10.748 18.719 25.066 19.809 40.828 0.26816 17.52-4.649 32.109-16.906 44.859-19.233 18.448-47.017 26.477-73.297 26.203-33.969-1.1649-69.012-12.149-96.188-32.938-3.9847-2.838-6.9183-4.0281-11.832-3.6367-3.2619 0.94577-4.9426 2.9632-6.9805 5.5742l-1 1c-0.6328 3.7327-0.78348 7.3706 0.88281 10.836 20.744 26.458 67.408 38.187 98.631 42.512 33.295 3.749 70.791-1.3293 98.506-21.551 2.7312-2.197 5.3737-4.4541 7.9805-6.7969 0.65742-0.58652 1.3148-1.173 1.9922-1.7773 15.768-14.892 23.389-36.665 24.23-57.961 0.62524-25.316-6.9664-47.242-24.508-65.676-23.965-22.827-56.496-34.2-87.434-44.086-21.868-6.9983-43.283-14.865-61.281-29.5-0.76957-0.59039-1.5391-1.1808-2.332-1.7891-9.601-7.7469-17.883-19.826-19.668-32.211-1.0572-17.609 2.0026-32.941 13.839-46.683 12.921-14.352 31.555-23.568 50.927-25.223l2.2344-0.09375c1.632-0.077344 1.632-0.077344 3.2969-0.15625 28.523-0.68731 60.173 7.0641 83.975 23.138 2.9104 1.714 5.3917 2.0178 8.7283 2.0178 4.1497-1.5162 6.8268-3.1111 9-7 1.2496-3.3025 1.0199-4.9234 0.125-8.375-6.1958-12.609-27.231-19.931-39.824-24.281-8.2881-2.6828-16.774-4.594-25.301-6.3438-1.1937-0.24879-2.3873-0.49758-3.6172-0.75391-37.341-6.2821-77.103 0.43239-104.38 27.754z" fill="#F1582C"/>
</svg>
