<?xml version="1.0" encoding="UTF-8"?>
<svg version="1.1" viewBox="0 0 1202 1202" xmlns="http://www.w3.org/2000/svg">
<path transform="translate(618.75 111.56)" d="m0 0c0.99793 0.002709 1.9959 0.0054181 3.024 0.0082092 21.926 0.089967 42.348 2.5362 63.226 9.4293 2.2912 0.66836 4.5828 1.3351 6.875 2 5.9742 1.8609 11.511 4.2517 17.125 7 1.7866 0.84691 1.7866 0.84691 3.6094 1.7109 14.934 7.1726 28.824 15.464 41.391 26.289 1.4724 1.1338 2.9514 2.2591 4.4375 3.375 13.029 10.102 24.655 21.957 34.004 35.543 1.3942 2.1865 1.3942 2.1865 3.5586 3.082 1.0214 1.6537 2.0161 3.3238 3 5 0.82453 1.1522 1.6584 2.2977 2.5 3.4375 5.5 7.6103 5.5 7.6103 5.5 11.562h2c14.009 25.068 24.862 54.218 27 83 0.17948 2.3177 0.35919 4.6354 0.53906 6.9531 0.15397 2.0156 0.30773 4.0312 0.46094 6.0469 1.1705-0.060586 2.3409-0.12117 3.5469-0.18359 36.545-1.819 73.089-2.0691 109.67-2.1215 3.8442-0.0074491 7.6883-0.020725 11.532-0.035522 6.1434-0.022565 12.287-0.028948 18.43-0.02294 2.297 1.5494e-4 4.594-0.0045937 6.8909-0.01453 3.1816-0.012387 6.3626-0.0057214 9.5442 0.0057316 0.92392-0.0076488 1.8478-0.015298 2.7997-0.023178 7.4 0.059648 13.862 1.1187 19.645 5.958 1.9375 2.4375 1.9375 2.4375 1.9375 4.4375h2c2.3457 6.058 3.4372 11.286 3.3775 17.767 0.0065405 1.2577 0.0065405 1.2577 0.013213 2.5408 0.010914 2.7984 5.524e-4 5.5962-0.0097856 8.3946 0.0034582 2.0312 0.0082238 4.0623 0.014182 6.0935 0.012519 5.5735 0.0063353 11.147-0.0029586 16.72-0.0067869 6.0146 0.0036893 12.029 0.01194 18.044 0.012575 11.102 0.011476 22.203 0.0032656 33.305-0.007553 10.263-0.0095139 20.526-0.0059321 30.789 3.4373e-4 1.022 3.4373e-4 1.022 6.9441e-4 2.0646 9.3407e-4 2.766 0.0018893 5.5321 0.0028793 8.2981 0.0091767 25.949 8.5915e-4 51.897-0.015291 77.846-0.014219 23.021-0.012978 46.043 0.001383 69.064 0.016093 25.885 0.022416 51.771 0.013163 77.656-9.6207e-4 2.7643-0.0019006 5.5287-0.0028292 8.293-3.5585e-4 1.0209-3.5585e-4 1.0209-7.1889e-4 2.0625-0.003402 10.245 5.5934e-4 20.491 0.0081576 30.736 0.0086092 11.667 0.0060812 23.333-0.0098422 35-0.0078505 5.9467-0.01103 11.893-0.0010525 17.84 0.0090156 5.4564 0.0039022 10.913-0.011933 16.369-0.0033192 1.9617-0.0017193 3.9234 0.0056274 5.8851 0.061588 17.829-2.2949 34.891-6.3917 52.232-0.28617 1.2478-0.57234 2.4956-0.86719 3.7812-3.1127 13.24-7.023 26.379-12.93 38.66-1.2934 2.7505-2.401 5.5438-3.5156 8.3711-2.9293 7.1021-6.7672 13.604-10.688 20.188-0.51691 0.88688-1.0338 1.7738-1.5664 2.6875-9.8575 16.76-9.8575 16.76-14.109 20.973-1.5954 1.4168-1.5954 1.4168-2.3242 4.3398h-2v2h-2c-0.25395 0.56074-0.50789 1.1215-0.76953 1.6992-7.861 14.699-23.328 27.155-36.23 37.301-1.1521 0.99282-2.2986 1.9922-3.4375 3-12.711 10.973-26.817 19.407-41.438 27.5-0.84691 0.47309-1.6938 0.94617-2.5664 1.4336-5.4089 2.9902-10.876 5.6409-16.559 8.0664l-3.5 1.5625c-3.258 1.3381-6.5005 2.4921-9.8516 3.5664-1.8816 0.61887-3.7505 1.2767-5.6094 1.9609-12.694 4.546-25.859 7.1646-39.039 9.9102-0.7212 0.16626-1.4424 0.33252-2.1854 0.50381-3.5418 0.62439-7.0701 0.83425-10.655 1.0201-0.77656 0.042192-1.5531 0.084383-2.3532 0.12785-2.5815 0.1366-5.1632 0.265-7.7453 0.39077-0.90301 0.044373-1.806 0.088746-2.7364 0.13446-21.043 1.0102-42.067 1.1336-63.13 1.1396-5.5003 0.0037787-11.001 0.018976-16.501 0.032615-9.4931 0.022044-18.986 0.037196-28.479 0.047367-13.8 0.014789-27.599 0.04039-41.399 0.068331-22.502 0.045266-45.003 0.081954-67.505 0.11314-21.656 0.03003-43.313 0.064372-64.969 0.10449-0.66533 0.001231-1.3307 0.002462-2.0162 0.0037303-6.0245 0.01115-12.049 0.022349-18.074 0.033601-34.349 0.064098-68.697 0.12461-103.05 0.17889-1.7528 0.0028048-1.7528 0.0028048-3.541 0.0056663-12.406 0.019761-24.811 0.03707-37.217 0.047337-4.2221 0.003677-8.4443 0.0074876-12.666 0.011358-1.0189 8.8733e-4 -2.0377 0.0017746-3.0874 0.0026889-13.238 0.01242-26.476 0.05733-39.714 0.13446-4.9055 0.026994-9.8111 0.046338-14.717 0.064995-4.407 0.017654-8.8137 0.047952-13.221 0.089142-3.2372 0.026476-6.4744 0.033575-9.7117 0.043702-1.1194 0.015011-2.2389 0.030022-3.3923 0.045488-8.6783-0.0020439-17.768-0.90955-24.229-7.3061-6.6891-7.9713-8.5938-16.409-8.4593-26.549-0.0081214-1.2068-0.016243-2.4136-0.02461-3.657-0.016386-3.3295-0.0061468-6.6569 0.015668-9.9862 0.017105-3.6294-7.9281e-4 -7.2587-0.014128-10.888-0.018553-6.3541-0.014907-12.708 0.003465-19.062 0.027244-9.4486 0.020054-18.897 0.0060828-28.345-0.023837-16.875-0.013695-33.75 0.010557-50.626 0.021075-14.765 0.030151-29.531 0.027409-44.296-1.6806e-4 -0.97955-3.3612e-4 -1.9591-5.0927e-4 -2.9683-7.045e-4 -3.9763-0.0014725-7.9526-0.0023312-11.929-0.0079286-37.294 0.0175-74.587 0.059053-111.88 0.03675-33.139 0.048362-66.277 0.037457-99.416-6.9286e-4 -2.1284-0.0013851-4.2568-0.0020766-6.3852-5.1298e-4 -1.5784-5.1298e-4 -1.5784-0.0010363-3.1886-0.0017071-5.2967-0.0033546-10.593-0.004938-15.89-3.1417e-4 -1.045-6.2833e-4 -2.0899-9.5201e-4 -3.1665-0.0079775-27.688 0.0029673-55.376 0.019975-83.064 0.0018141-2.9787 0.0036254-5.9573 0.0054305-8.936 0.0012022-1.976 0.0024195-3.952 0.0036518-5.9279 0.0084461-13.781 0.0095979-27.562 0.005789-41.343-0.0048829-17.756 0.0032336-35.511 0.03442-53.267 0.016116-9.3921 0.021292-18.784 0.010715-28.176-0.0059454-6.2703 0.0026222-12.541 0.023097-18.811 0.011273-3.5746 0.016234-7.149 0.0036668-10.724-0.013369-3.8492 0.0041011-7.6978 0.024654-11.547-0.008793-1.1114-0.017586-2.2229-0.026645-3.368 0.076292-7.4634 1.2399-12.81 6.2465-18.628 0.54914-0.43699 1.0983-0.87398 1.6641-1.3242 0.81598-0.67482 0.81598-0.67482 1.6484-1.3633 6.8425-4.5842 12.412-4.8607 20.48-5.0039 1.3736-0.033035 2.7472-0.066406 4.1207-0.10007 23.678-0.52026 47.373-0.36935 71.056-0.34882 5.5897 0.0043471 11.179 0.0012399 16.769-0.0036262 6.1392-0.0051241 12.278-0.0045336 18.418-0.0016183 2.5733 6.6021e-4 5.1466-1.2689e-4 7.7199-0.0024796 13.507-0.0096598 26.942 0.092021 40.413 1.1363-0.065742-1.7828-0.065742-1.7828-0.13281-3.6016 0.0078365-6.6898 1.1506-13.191 2.2578-19.773 0.11137-0.66385 0.22275-1.3277 0.33749-2.0117 1.9072-11.23 4.51-21.945 8.5375-32.613 0.47059-1.2641 0.47059-1.2641 0.95068-2.5537 3.398-9.0426 6.9027-17.913 11.823-26.255 1.3056-2.3326 2.2835-4.6928 3.2266-7.1914h2c0.25781-0.86883 0.51562-1.7377 0.78125-2.6328 1.24-3.4259 2.7591-6.1781 4.7188-9.2422 0.60844-0.9668 1.2169-1.9336 1.8438-2.9297 0.54656-0.72445 1.0931-1.4489 1.6562-2.1953h2c0.20625-0.66645 0.4125-1.3329 0.625-2.0195 1.8803-4.0757 4.515-7.2308 7.375-10.668 0.61448-0.73896 1.229-1.4779 1.8621-2.2393 11.748-13.887 24.577-26.202 39.365-36.8 1.4902-1.0704 2.9603-2.1688 4.4253-3.2734 19.129-14.126 42.579-24.505 65.348-31 1.1924-0.3416 2.3848-0.6832 3.6133-1.0352 18.804-5.0514 37.729-6.5269 57.137-6.4023zm-99.75 102.44c-0.71543 0.60715-1.4309 1.2143-2.168 1.8398-8.8612 7.5586-16.012 15.744-22.832 25.16-0.52465 0.67934-1.0493 1.3587-1.5898 2.0586-14.644 20.161-27.158 52.633-24.41 77.941 1.5017 1.5017 2.9121 1.2802 5.0117 1.4727 13.35 1.3696 26.365 3.6477 39.488 6.4023 0.79812 0.16477 1.5962 0.32954 2.4185 0.4993 9.7826 2.0294 19.295 4.4596 28.786 7.5854 2.6317 0.83082 5.1475 1.4939 7.8577 1.9778 5.5012 1.1045 10.598 3.4336 15.762 5.5664 2.9379 1.1958 5.8641 2.2837 8.8633 3.3086 10.963 3.913 21.715 8.9632 32.017 14.373 7.5459 3.4226 14.155 1.7143 21.643-0.92383 3.0292-1.2125 5.8805-2.5756 8.7773-4.0742 27.708-14.265 60.262-22.921 90.907-27.773 3.059-0.51315 6.1043-1.0872 9.1519-1.6641 1.7924-0.3391 1.7924-0.3391 3.6211-0.68506 2.3611-0.44843 4.7218-0.89914 7.082-1.3525 6.5268-1.2286 12.991-2.1941 19.613-2.7124-0.15508-12.59-1.7314-23.864-5.3799-35.918-0.53531-1.7973-1.0165-3.6105-1.4873-5.4258-1.9343-7.1475-4.8626-13.725-8.0078-20.406-0.41081-0.87576-0.82162-1.7515-1.2449-2.6538-7.9256-16.397-19.909-31.93-33.88-43.596-0.825-0.71285-1.65-1.4257-2.5-2.1602-53.216-45.094-144.97-45.528-197.5 1.1602zm243 241c-0.70625 0.21141-1.4125 0.42281-2.1401 0.64062-10.546 3.1762-20.295 7.1676-30.003 12.366-1.8017 0.96433-3.6125 1.9088-5.4268 2.8491-9.6178 4.9375-9.6178 4.9375-18.43 11.145v2c-0.55688 0.25008-1.1138 0.50016-1.6875 0.75781-13.055 7.0126-24.561 20.549-33.312 32.242-0.68965 0.9075-1.3793 1.815-2.0898 2.75-7.3499 8.8279-7.3499 8.8279-10.91 19.25h-2c-0.24234 0.54527-0.48469 1.0905-0.73438 1.6523-3.2656 7.3477-3.2656 7.3477-4.1582 9.2834-15.387 33.751-21.337 73.984-11.791 110.24 0.68359 2.8242 0.68359 2.8242 1.0508 5.9961 3.604 21.802 15.341 41.87 27.633 59.828 0.45327 0.665 0.90653 1.33 1.3735 2.0151 2.3021 3.5382 2.3021 3.5382 5.6265 5.9849l1.4375 2.5c1.3757 2.7916 1.3757 2.7916 4.5625 3.5 0.67264 1.3303 1.338 2.6644 2 4 13.109 14.681 28.964 25.564 46.111 34.95 1.8316 1.0178 3.6348 2.0758 5.4399 3.1396 36.819 20.39 84.484 21.298 124.05 10.38 20.358-5.8671 38.56-14.527 55.398-27.47 1.8935-1.3574 3.7894-2.7115 5.6875-4.0625 6.9988-5.0657 6.9988-5.0657 13.312-10.938v-2c0.55043-0.20625 1.1009-0.4125 1.668-0.625 3.207-1.8909 5.3112-4.5353 7.6445-7.375 0.72739-0.8735 0.72739-0.8735 1.4695-1.7646 4.0283-4.8905 7.6996-9.9666 11.218-15.235 0.48727-0.67805 0.97453-1.3561 1.4766-2.0547 4.2249-5.9872 7.393-12.417 10.582-18.992 1.1271-2.3236 2.2886-4.5813 3.5391-6.8438 17.865-32.586 20.121-81.177 9.8736-116.57-4.1202-13.819-8.9001-27.303-16.367-39.703-1.1378-1.8938-2.2288-3.8094-3.3154-5.7329-6.0774-10.614-12.987-20.549-21.789-29.105-10-10-10-10-12.359-12.473-3.1055-2.9723-6.4056-5.4594-9.8906-7.9648-0.67112-0.48445-1.3422-0.96889-2.0337-1.468-1.3225-0.9514-2.6468-1.9003-3.9731-2.8464-1.3848-0.99147-2.7576-1.9997-4.126-3.0137-6.665-4.757-14.165-7.9265-21.592-11.292-1.7217-0.80085-3.4142-1.6639-5.0991-2.5396-11.264-5.7624-23.719-8.3401-35.926-11.402-0.72196-0.18772-1.4439-0.37544-2.1877-0.56885-24.472-5.8222-56-2.8182-79.812 4.5688zm-379.31 2.4375c-0.82863 0.19296-1.6573 0.38591-2.511 0.58472-5.9591 1.4779-11.53 3.5809-17.177 5.9778-1.204 0.50145-2.408 1.0029-3.6484 1.5195-11.104 4.905-22.516 10.306-32.352 17.48v2c-0.67418 0.20367-1.3484 0.40734-2.043 0.61719-4.0208 1.8803-6.9732 4.57-10.27 7.5078-0.66935 0.59112-1.3387 1.1822-2.0283 1.7913-1.8959 1.6844-3.7802 3.3806-5.6592 5.0837-0.78246 0.7077-1.5649 1.4154-2.3711 2.1445-5.7921 5.5272-10.555 11.939-15.411 18.28-1.0862 1.4044-2.2011 2.7864-3.3198 4.165-4.8887 6.2065-9.3329 12.583-10.898 20.41h-2c-0.37512 0.9552-0.75023 1.9104-1.1367 2.8945-0.51678 1.306-1.0337 2.612-1.5508 3.918-0.24428 0.62326-0.48855 1.2465-0.74023 1.8887-1.1805 2.9737-2.3788 5.9017-3.7808 8.7795-3.5306 7.2708-5.4207 14.432-7.0415 22.332-0.25523 1.1879-0.51047 2.3757-0.77344 3.5996-0.68039 3.1924-1.3489 6.3847-1.9766 9.5879-0.18627 0.9357-0.37254 1.8714-0.56445 2.8354-0.54825 3.9834-0.61708 7.8863-0.63867 11.903-0.0057001 0.83903-0.0114 1.6781-0.017273 2.5425-0.0094195 1.7759-0.015972 3.5519-0.019836 5.3278-0.0095981 2.6575-0.040605 5.3141-0.072266 7.9714-0.069547 11.142 0.92606 21.539 3.3125 32.42 0.20947 0.96559 0.41895 1.9312 0.63477 2.926 0.53639 2.3308 1.1187 4.6396 1.7402 6.949 0.21133 0.79463 0.42265 1.5893 0.64038 2.408 1.4796 5.3609 3.337 10.344 5.8167 15.334 1.1383 2.3223 2.0325 4.6422 2.918 7.0703 2.9392 7.498 7.1919 14.379 11.25 21.312 0.50145 0.86754 1.0029 1.7351 1.5195 2.6289 2.4212 4.0507 5.0864 7.056 8.4805 10.371 1.1571 1.4704 2.3014 2.9509 3.4375 4.4375 9.1162 11.555 20.259 22.478 32.562 30.562 1.236 0.83799 2.4717 1.6766 3.707 2.5156 9.7138 6.5146 19.493 11.992 30.293 16.484 1.086 0.46382 1.086 0.46382 2.1938 0.93701 28.906 12.098 64.074 14.912 94.635 8.5161 2.2263-0.46468 4.4583-0.88212 6.6943-1.2969 24.226-4.699 47.073-16.032 66.477-31.156l2.7344-2.0625c12.351-9.6468 23.503-20.869 32.227-33.898 1.6735-2.4943 3.4119-4.8248 5.2891-7.1641 3.6936-4.8622 6.1325-10.387 8.75-15.875 0.68459-1.3348 1.3717-2.6684 2.0625-4 0.6529-1.3299 1.2984-2.6634 1.9375-4 0.54914-1.1273 0.54914-1.1273 1.1094-2.2773 15.744-34.81 18.619-79.511 6.5122-115.82-0.92902-2.8403-1.7304-5.7169-2.5591-8.5879-9.343-29.846-30.258-58.632-54.875-77.812-0.53931-0.42177-1.0786-0.84353-1.6343-1.2781-3.0502-2.3092-5.9292-3.9894-9.5532-5.2219v-2c-5.9819-3.3666-11.984-6.6942-18-10-1.0441-0.57879-2.0883-1.1576-3.1641-1.7539-36.417-19.258-79.698-21.024-119.15-11.809z" fill="#5CB651"/>
<path transform="translate(618.75 111.56)" d="m0 0c0.99793 0.002709 1.9959 0.0054181 3.024 0.0082092 21.926 0.089967 42.348 2.5362 63.226 9.4293 2.2912 0.66836 4.5828 1.3351 6.875 2 5.9742 1.8609 11.511 4.2517 17.125 7 1.7866 0.84691 1.7866 0.84691 3.6094 1.7109 14.934 7.1726 28.824 15.464 41.391 26.289 1.4724 1.1338 2.9514 2.2591 4.4375 3.375 13.029 10.102 24.655 21.957 34.004 35.543 1.3942 2.1865 1.3942 2.1865 3.5586 3.082 1.0214 1.6537 2.0161 3.3238 3 5 0.82453 1.1522 1.6584 2.2977 2.5 3.4375 5.5 7.6103 5.5 7.6103 5.5 11.562h2c14.004 25.057 24.885 54.226 27 83 0.10909 1.3607 0.21847 2.7214 0.32812 4.082 0.25043 3.3051 0.47542 6.6093 0.67188 9.918-8.915 1.2035-17.757 2.1105-26.75 2.4375-13.476 0.5016-26.854 2.0697-40.25 3.5625-1.4161-4.0645-2.2033-7.3842-2.3125-11.688-0.53459-8.3529-2.7606-16.128-5.0674-24.134-0.52395-1.8408-1.01-3.6924-1.4873-5.5459-1.9462-7.136-4.8657-13.708-8.0078-20.383-0.41081-0.87576-0.82162-1.7515-1.2449-2.6538-4.0764-8.4337-9.2208-15.954-14.943-23.346-0.40799-0.53754-0.81598-1.0751-1.2363-1.6289-2.0396-2.6485-4.1249-5.0384-6.5098-7.3867-2.1914-2.2344-2.1914-2.2344-2.1914-4.2344l-1.7031-0.73438c-2.7508-1.5157-4.7548-3.3695-7.0469-5.5156-29.219-26.698-69.579-36.581-108.41-34.914-33.02 1.9099-65.736 11.852-90.836 34.164l-2.2031 1.875c-1.9625 1.6778-3.8874 3.3872-5.7969 5.125-0.57105 0.51691-1.1421 1.0338-1.7305 1.5664-5.5027 5.2256-9.8193 11.319-14.27 17.434-0.52594 0.68062-1.0519 1.3612-1.5938 2.0625-16.11 22.195-23.544 50.996-25.406 77.938-12.858-0.74992-25.715-1.514-38.571-2.3022-2.1845-0.13325-4.3691-0.26506-6.5537-0.39551-3.1945-0.19096-6.3886-0.38672-9.5828-0.5835-0.97597-0.057323-1.9519-0.11465-2.9575-0.17371-0.90582-0.056759-1.8116-0.11352-2.7449-0.172-0.79256-0.048058-1.5851-0.096116-2.4017-0.14563-2.1439-0.22275-4.1149-0.6503-6.1889-1.2274-0.29421-7.9782 0.80296-15.516 2.125-23.375 0.11137-0.66385 0.22275-1.3277 0.33749-2.0117 1.9072-11.23 4.51-21.945 8.5375-32.613 0.31373-0.84272 0.62745-1.6854 0.95068-2.5537 3.398-9.0426 6.9027-17.913 11.823-26.255 1.3056-2.3326 2.2835-4.6928 3.2266-7.1914h2c0.25781-0.86883 0.51562-1.7377 0.78125-2.6328 1.24-3.4259 2.7591-6.1781 4.7188-9.2422 0.91266-1.4502 0.91266-1.4502 1.8438-2.9297 0.81984-1.0867 0.81984-1.0867 1.6562-2.1953h2c0.20625-0.66645 0.4125-1.3329 0.625-2.0195 1.8803-4.0757 4.515-7.2308 7.375-10.668 0.61448-0.73896 1.229-1.4779 1.8621-2.2393 11.748-13.887 24.577-26.202 39.365-36.8 1.4902-1.0704 2.9603-2.1688 4.4253-3.2734 19.129-14.126 42.579-24.505 65.348-31 1.1924-0.3416 2.3848-0.6832 3.6133-1.0352 18.804-5.0514 37.729-6.5269 57.137-6.4023z" fill="#313131"/>
<path transform="translate(778,514)" d="m0 0c30.321-1.5447 58.068 8.2418 81 28 0.74508 0.6007 1.4902 1.2014 2.2578 1.8203 21.738 18.103 33.742 46.349 36.559 74.01 1.0213 12.104-0.22897 23.368-2.8169 35.17-0.26684 1.2568-0.53367 2.5137-0.80859 3.8086-3.3057 13.884-9.3087 26.98-18.191 38.191-0.72316 0.92426-1.4463 1.8485-2.1914 2.8008-17.732 22.173-42.701 38.586-71.241 42.536-23.781 2.6341-46.977 0.42194-68.568-10.337-1.0055-0.49113-2.0109-0.98227-3.0469-1.4883-7.8357-4.0006-14.356-8.7195-20.953-14.512-0.7309-0.60973-1.4618-1.2195-2.2148-1.8477-21.579-18.183-34.884-46.09-37.438-74-1.0353-14.886 0.30482-28.898 4.6523-43.152 0.1911-0.65372 0.38221-1.3074 0.5791-1.981 2.451-8.3452 5.4825-15.807 10.421-23.019 2.4052 2.191 3.7937 4.2903 5.25 7.1875 7.5306 13.788 19.105 20.349 33.75 24.812 0.65227 0.20367 1.3045 0.40734 1.9766 0.61719 14.666 2.7747 29.433-1.1562 41.621-9.3672 9.8597-7.3762 17.72-18.277 20.023-30.562 1.6816-16.366 0.11353-29.514-8.6211-43.688l-2-2v-3z" fill="#303030"/>
<path transform="translate(442,517)" d="m0 0c14.91-0.65369 27.815 0.3061 42 5 1.0209 0.31066 2.0419 0.62133 3.0938 0.94141 12.189 3.9971 23.331 10.586 32.906 19.059 0.86496 0.74508 1.7299 1.4902 2.6211 2.2578 8.446 7.4044 15.008 15.502 21.379 24.742 0.5891 0.83531 1.1782 1.6706 1.7852 2.5312 4.3886 6.7978 7.0016 13.957 9.5898 21.594 0.34611 1.0134 0.69223 2.0269 1.0488 3.071 8.5457 26.299 4.7743 57.724-7.3613 82.179-5.3154 10.355-11.675 18.803-19.71 27.206-1.2159 1.2765-2.4122 2.5715-3.606 3.8687-17.96 18.952-44.954 29.815-70.836 30.766-33.741 0.80337-60.69-10.94-85.844-33.102-1.9387-1.9827-3.0164-3.5716-4.0664-6.1133h-2c-11.901-14.887-19.501-31.566-24-50-0.24621-0.98871-0.49242-1.9774-0.74609-2.9961-5.4262-26.382 1.3125-52.749 13.746-76.004 3 1 3 1 4.4297 3.293 0.47695 0.9552 0.95391 1.9104 1.4453 2.8945 6.2893 11.917 15.509 19.23 28.125 23.812 5.5771 1.6326 10.575 2.3589 16.375 2.3125 1.118-0.0084595 1.118-0.0084595 2.2585-0.01709 5.8834-0.12922 10.932-0.94228 16.366-3.2954 0.97453-0.41379 1.9491-0.82758 2.9531-1.2539 14.5-6.6854 22.187-16.492 28.066-31.047 4.1503-11.426 3.5066-25.791-1.4414-36.781-2.2137-4.0931-4.6122-8.0194-7.2227-11.871-1.3555-2.0469-1.3555-2.0469-1.3555-3.0469z" fill="#303030"/>
<path transform="translate(609.2 737.81)" d="m0 0c13.569-0.46892 28.352 1.5797 40.773 7.2656 2.0677 0.93843 4.1062 1.5882 6.2812 2.2344 4.246 1.3822 8.2418 3.2346 12.25 5.1875 0.62423 0.29689 1.2485 0.59377 1.8916 0.89966 1.5779 0.78827 3.0989 1.688 4.6084 2.6003l1 3c1.7659 1.0092 1.7659 1.0092 4 2 8.1998 4.8453 14.103 11.651 19.348 19.523 1.0251 1.5364 2.0893 3.0482 3.2109 4.5156 6.3768 8.5796 11.908 21.742 11.297 32.586-1.8112 5.0283-6.3998 7.7797-10.855 10.375-0.89074 0.34547-1.7815 0.69094-2.6992 1.0469-3.4708 1.4378-4.4794 3.7354-6.3008 6.9531l-1.4375 3.5c-1.2766 2.8596-2.1456 4.3678-4.125 6.625-2.2425 2.6451-3.3828 4.6149-4.4375 7.875h-2c-0.27981 0.58846-0.55961 1.1769-0.8479 1.7832-8.005 15.403-24.508 34.892-39.152 44.217h-3c-0.22688 0.5775-0.45375 1.155-0.6875 1.75-4.036 6.9189-13.151 10.357-20.312 13.25-7.8883 1.816-15.117-1.206-22-5-2.2008-1.6373-4.1676-3.3587-6.1484-5.2539-1.8219-1.7181-3.6951-3.1602-5.7266-4.6211-16.918-12.524-31.312-28.703-43.398-45.812-1.4766-1.9777-2.9882-3.5787-4.7266-5.3125-1.0978-1.4744-2.1591-2.9764-3.1875-4.5-0.5298-0.77344-1.0596-1.5469-1.6055-2.3438-1.207-2.1562-1.207-2.1562-1.207-5.1562h-2l-0.625-3.5c-2.4271-6.83-10.3-9.4825-16.375-12.5-0.097777-5.8177 0.40049-10.402 2-16h2l0.3125-3.1875c0.6866-3.8075 1.6176-5.6281 3.6875-8.8125l1.1875-3.125c8.8625-20.935 31.065-35.286 51.133-43.867 2.2081-0.77067 4.4221-1.3948 6.6797-2.0078 1.3989-0.41383 2.7973-0.82938 4.1953-1.2461 9.1228-2.6798 17.514-4.3848 27-4.9414z" fill="#F7D52C"/>
</svg>
